<?xml version="1.0" encoding="UTF-8"?>
<svg width="22px" height="20px" viewBox="0 0 22 20" version="1.1" xmlns="http://www.w3.org/2000/svg" xmlns:xlink="http://www.w3.org/1999/xlink">
    <title>Shape</title>
    <g id="Symbols" stroke="none" stroke-width="1" fill="none" fill-rule="evenodd">
        <g id="nav" transform="translate(-419.000000, -10.000000)" fill="#4D4D4D">
            <g transform="translate(195.000000, 0.000000)" id="Group">
                <g transform="translate(167.000000, 0.000000)">
                    <path d="M68,14 C69.1045695,14 70,13.1045695 70,12 C70,10.8954305 69.1045695,10 68,10 C66.8954305,10 66,10.8954305 66,12 C66,13.1045695 66.8954305,14 68,14 Z M72.21,28.16 C75.74,27.55 79,26.986 79,24.014 L79,15 C79,13.3435362 77.6574637,12.0005522 76.001,12 L71.5,12 L71.508,12.143 L71.498,12.142 C71.4657124,12.9668595 71.141837,13.7535153 70.584,14.362 L71.133,14.544 C71.9493411,14.816374 72.4999204,15.5804185 72.5,16.441 L72.5,21.933 L72.923,22.006 C75.053,22.376 77,22.714 77,24.014 C77,25.341 75.007,25.669 72.672,26.054 L71.819,26.197 C71.2747234,26.2911645 70.9098355,26.8087234 71.004,27.353 C71.0981645,27.8972766 71.6157234,28.2621645 72.16,28.168 L72.21,28.159 L72.21,28.16 Z M57,24 L57,15 C57,13.3431458 58.3431458,12 60,12 L64.5,12 L64.492,12.143 L64.502,12.142 C64.514,12.428 64.56,12.706 64.636,12.97 C63.976,13.288 63.5,13.96 63.5,14.775 L63.5,21.932 L63.012,22.016 C60.907,22.376 59,22.702 59,24 C59,25.355 61.146,25.701 63.533,26.087 L64.308,26.213 L64.438,24.689 C64.4411525,24.6594464 64.4503425,24.6308555 64.465,24.605 C64.4900489,24.5570776 64.5337834,24.5216329 64.5858548,24.5070529 C64.6379262,24.4924729 64.6937077,24.5000532 64.74,24.528 L69.4,27.547 C69.4663865,27.5884738 69.5048321,27.6628842 69.5002478,27.7410265 C69.4956634,27.8191689 69.4487806,27.8885733 69.378,27.922 L64.28,29.983 C64.2489727,29.9969179 64.214832,30.0024356 64.181,29.999 C64.0682128,29.9844325 63.9880346,29.8819826 64.001,29.769 L64.135,28.215 C60.439,27.635 57,27 57,24 Z M66.316,14.439 C66.0111947,14.3374794 65.6761745,14.3885845 65.4155001,14.5763651 C65.1548257,14.7641457 65.0002439,15.0657328 65,15.387 L65,17.793 C65,17.9253525 65.052531,18.0522945 65.146,18.146 L65.854,18.854 C65.947469,18.9477055 65.9999719,19.0746475 66,19.207 L66,23.191 C66,23.3802216 66.1068295,23.5532287 66.276,23.638 L67.2,24.1 L67.865,21.108 C67.889,20.998 68.051,21.007 68.062,21.12 L68.422,24.71 L69.566,25.283 C69.6589305,25.3293944 69.7692473,25.324418 69.8576231,25.2698449 C69.9459989,25.2152718 69.999858,25.1188677 70,25.015 L70,20.809 C70,20.6197784 70.1068295,20.4467713 70.276,20.362 L70.724,20.138 C70.8931705,20.0532287 71,19.8802216 71,19.691 L71,17.081 C71,16.4352729 70.5866395,15.8620498 69.974,15.658 L66.316,14.438 L66.316,14.439 Z" id="Shape"></path>
                </g>
            </g>
        </g>
    </g>
</svg>