<svg width="13" height="16" viewBox="0 0 13 16" fill="none" xmlns="http://www.w3.org/2000/svg">
<path fill-rule="evenodd" clip-rule="evenodd" d="M9 2H11.75C12.4403 2 13 2.55966 13 3.25V4.25C13 4.52616 12.7762 4.75 12.5 4.75H0.5C0.223844 4.75 0 4.52616 0 4.25V3.25C0 2.55966 0.559656 2 1.25 2H4V1.5C4 0.671562 4.67156 0 5.5 0H7.5C8.32844 0 9 0.671562 9 1.5V2ZM5.5 1C5.22437 1 5 1.22438 5 1.5V2H8V1.5C8 1.22438 7.77563 1 7.5 1H5.5Z" fill="#E30925"/>
<path fill-rule="evenodd" clip-rule="evenodd" d="M0.792814 5.91369C0.788564 5.82456 0.859658 5.75 0.948877 5.75H12.0511C12.1403 5.75 12.2114 5.82456 12.2072 5.91369L11.7947 14.5712C11.7566 15.3725 11.0984 16 10.2966 16H2.70344C1.90156 16 1.24344 15.3725 1.20531 14.5712L0.792814 5.91369ZM9 6.5C8.72375 6.5 8.5 6.72375 8.5 7V13.5C8.5 13.7762 8.72375 14 9 14C9.27625 14 9.5 13.7762 9.5 13.5V7C9.5 6.72375 9.27625 6.5 9 6.5ZM6 7C6 6.72375 6.22375 6.5 6.5 6.5C6.77625 6.5 7 6.72375 7 7V13.5C7 13.7762 6.77625 14 6.5 14C6.22375 14 6 13.7762 6 13.5V7ZM4 6.5C3.72375 6.5 3.5 6.72375 3.5 7V13.5C3.5 13.7762 3.72375 14 4 14C4.27625 14 4.5 13.7762 4.5 13.5V7C4.5 6.72375 4.27625 6.5 4 6.5Z" fill="#E30925"/>
</svg>
