<?xml version="1.0" encoding="UTF-8"?>
<svg width="16px" height="16px" viewBox="0 0 16 16" version="1.1" xmlns="http://www.w3.org/2000/svg" xmlns:xlink="http://www.w3.org/1999/xlink">
    <title>Shape</title>
    <g id="Page-1" stroke="none" stroke-width="1" fill="none" fill-rule="evenodd">
        <g id="Справочник" transform="translate(-504.000000, -402.000000)" fill="#4D4D4D" fill-rule="nonzero">
            <g id="right" transform="translate(504.000000, 100.000000)">
                <g id="Group-28" transform="translate(0.000000, 261.000000)">
                    <g id="building" transform="translate(0.000000, 41.000000)">
                        <path d="M15.1354375,15.0625 L15.1354375,0 L12.5112188,0 L9.01875,3.65865625 L9.01875,15.0625 L8.08125,15.0625 L8.08125,4.49209375 L4.59378125,8.14553125 L4.59378125,15.0625 L2.203125,15.0625 L2.203125,14.0705313 C2.932375,13.8654687 3.46875,13.1949375 3.46875,12.4010625 C3.46875,11.4447187 2.69071875,10.6666875 1.734375,10.6666875 C0.77803125,10.6666875 0,11.4446875 0,12.4010313 C0,13.1949375 0.536375,13.8654688 1.265625,14.0705 L1.265625,15.0625 L0,15.0625 L0,16 L16,16 L16,15.0625 L15.1354375,15.0625 Z M6.8078125,13.3333438 L5.8703125,13.3333438 L5.8703125,12 L6.8078125,12 L6.8078125,13.3333438 Z M6.8078125,10.3333437 L5.8703125,10.3333437 L5.8703125,9 L6.8078125,9 L6.8078125,10.3333437 Z M11.659875,13.3333438 L10.722375,13.3333438 L10.722375,12 L11.659875,12 L11.659875,13.3333438 Z M11.659875,10.3333437 L10.722375,10.3333437 L10.722375,9 L11.659875,9 L11.659875,10.3333437 Z M11.659875,7.33334375 L10.722375,7.33334375 L10.722375,6 L11.659875,6 L11.659875,7.33334375 Z M13.4317813,13.3333438 L12.4942813,13.3333438 L12.4942813,12 L13.4317813,12 L13.4317813,13.3333438 Z M13.4317813,10.3333437 L12.4942813,10.3333437 L12.4942813,9 L13.4317813,9 L13.4317813,10.3333437 Z M13.4317813,7.33334375 L12.4942813,7.33334375 L12.4942813,6 L13.4317813,6 L13.4317813,7.33334375 Z M13.4317813,4.33334375 L12.4942813,4.33334375 L12.4942813,3 L13.4317813,3 L13.4317813,4.33334375 Z" id="Shape"></path>
                    </g>
                </g>
            </g>
        </g>
    </g>
</svg>