<?xml version="1.0" encoding="UTF-8"?>
<svg width="30px" height="21px" viewBox="0 0 30 21" version="1.1" xmlns="http://www.w3.org/2000/svg" xmlns:xlink="http://www.w3.org/1999/xlink">
    <title>Group 7</title>
    <g id="Page-1" stroke="none" stroke-width="1" fill="none" fill-rule="evenodd">
        <g id="Карта" transform="translate(-22.000000, -122.000000)" fill="#FFFFFF">
            <g id="sidebar" transform="translate(-2.000000, 0.000000)">
                <g id="мои-маршруты" transform="translate(2.000000, 0.000000)">
                    <g id="Group-6" transform="translate(17.000000, 76.000000)">
                        <g id="Group-8" transform="translate(0.000000, 39.000000)">
                            <g id="Group-7" transform="translate(4.999994, 7.000000)">
                                <path d="M27.3478902,20.9998366 C27.036458,21.0023769 26.7493487,20.8318576 26.6025645,20.5571744 L25.999904,18.999857 L19.3333054,18.999857 L18.7306449,20.5571744 C18.5836381,20.8322848 18.2958952,21.0028752 17.9839859,20.9998366 L16.8333309,20.9998366 C16.3824109,21.008765 16.0094823,20.6507536 16.0000061,20.1998447 L16.0000061,6.93331359 C16.0000061,6.25865381 16.4933344,5.67732641 17.1826607,5.5413278 C19.010642,5.18133148 20.8399567,5 22.6666047,5 C24.4932527,5 26.3225673,5.17999816 28.1505487,5.5413278 C28.8385416,5.67732641 29.3332033,6.25865381 29.3332033,6.9346469 L29.3332033,20.1998447 C29.3332033,20.6411736 28.9598737,20.9998366 28.4998784,20.9998366 L27.3478902,20.9998366 Z M22.6666047,9.666619 C20.4719604,9.666619 18.9266429,9.75195146 18.0319854,9.92261638 C17.6239895,10.0012822 17.3333258,10.317279 17.3333258,10.6826086 L17.3333258,13.5559126 C17.3333258,13.9852416 17.7306551,14.333238 18.2226501,14.333238 L27.1105593,14.333238 C27.601221,14.333238 27.9998835,13.9852416 27.9998835,13.5559126 L27.9998835,10.6826086 C27.9998835,10.317279 27.7092198,10.0012822 27.301224,9.92261638 C26.4065665,9.75195146 24.8612489,9.666619 22.6666047,9.666619 Z M26.6665638,18.3331971 C27.402936,18.3331971 27.9998835,17.7362496 27.9998835,16.9998774 C27.9998835,16.2635053 27.402936,15.6665577 26.6665638,15.6665577 C25.9301917,15.6665577 25.3332441,16.2635053 25.3332441,16.9998774 C25.3332441,17.7362496 25.9301917,18.3331971 26.6665638,18.3331971 Z M18.6666455,18.3331971 C19.4030177,18.3331971 19.9999653,17.7362496 19.9999653,16.9998774 C19.9999653,16.2635053 19.4030177,15.6665577 18.6666455,15.6665577 C17.9302734,15.6665577 17.3333258,16.2635053 17.3333258,16.9998774 C17.3333258,17.7362496 17.9302734,18.3331971 18.6666455,18.3331971 Z M24.6665843,7.66663943 L24.6665843,8.99995914 L25.999904,8.99995914 L25.999904,7.66663943 L24.6665843,7.66663943 Z M23.3332645,6.33331971 L23.3332645,7.66663943 L24.6665843,7.66663943 L24.6665843,6.33331971 L23.3332645,6.33331971 Z M21.9999448,7.66663943 L21.9999448,8.99995914 L23.3332645,8.99995914 L23.3332645,7.66663943 L21.9999448,7.66663943 Z M20.6666251,6.33331971 L20.6666251,7.66663943 L21.9999448,7.66663943 L21.9999448,6.33331971 L20.6666251,6.33331971 Z M19.3333054,7.66663943 L19.3333054,8.99995914 L20.6666251,8.99995914 L20.6666251,7.66663943 L19.3333054,7.66663943 Z" id="Shape-Copy-2"></path>
                                <path d="M14.6666729,15.488001 C14.6666729,15.7706677 14.4160063,16 14.1333398,16 L12.3573403,16 C12.1343616,16 11.9262041,15.8883013 11.8026739,15.7026676 L10.6666742,14 L5.33334261,14 L4.19734298,15.7026676 C4.07381278,15.8883013 3.86565521,16 3.64267649,16 L1.86667706,16 C1.58401049,16 1.3333439,15.7706677 1.3333439,15.488001 L1.3333439,6.66666708 L0.0973442999,6.09866705 C0.0345401275,6.03570685 -0.000502199491,5.95026114 5.43949595e-06,5.8613337 L5.43949595e-06,3.6666669 C5.43949595e-06,2.66666683 0.96534402,2.66666683 1.3333439,2.66666683 L1.3333439,2.38666682 C1.3333439,1.52133343 1.80267708,0.75333338 2.6666768,0.485333364 C3.74400979,0.152000009 5.12400935,0 8.00000544,0 C10.8746742,0 12.256007,0.152000009 13.33334,0.485333364 C14.1973398,0.75333338 14.6666729,1.52133343 14.6666729,2.38800015 L14.6666729,2.66666683 C15.0346728,2.66666683 16.0000054,2.66666683 16.0000054,3.6666669 L16.0000054,5.86400037 C16.0001713,5.95116387 15.9661883,6.03492469 15.9053392,6.09733371 L14.6666729,6.68000042 L14.6666729,15.4866676 L14.6666729,15.488001 Z M8.00000594,1.77777789 C5.34933911,1.77777789 3.68667234,1.97135815 3.01333896,2.35437052 C2.79985787,2.47550323 2.66698106,2.70764015 2.66667227,2.96000019 L2.66667227,7.48148195 C2.66667227,7.76770419 2.86667229,8.0000005 3.1106723,8.0000005 L12.8893396,8.0000005 C13.1346729,8.0000005 13.3333396,7.76770419 13.3333396,7.48148195 L13.3333396,2.81619771 C13.3320063,2.12345692 11.5533395,1.77777789 8.00000594,1.77777789 Z M12.0000062,12.4444452 C12.7363859,12.4444452 13.3333396,11.8474915 13.3333396,11.1111118 C13.3333396,10.3747321 12.7363859,9.77777839 12.0000062,9.77777839 C11.2636265,9.77777839 10.6666728,10.3747321 10.6666728,11.1111118 C10.6666728,11.8474915 11.2636265,12.4444452 12.0000062,12.4444452 Z M4.00000569,12.4444452 C4.7363854,12.4444452 5.33333911,11.8474915 5.33333911,11.1111118 C5.33333911,10.3747321 4.7363854,9.77777839 4.00000569,9.77777839 C3.26362598,9.77777839 2.66667227,10.3747321 2.66667227,11.1111118 C2.66667227,11.8474915 3.26362598,12.4444452 4.00000569,12.4444452 Z" id="Shape-Copy"></path>
                            </g>
                        </g>
                    </g>
                </g>
            </g>
        </g>
    </g>
</svg>