<?xml version="1.0" encoding="UTF-8"?>
<svg width="27px" height="20px" viewBox="0 0 27 20" version="1.1" xmlns="http://www.w3.org/2000/svg" xmlns:xlink="http://www.w3.org/1999/xlink">
    <title>Shape</title>
    <g id="Symbols" stroke="none" stroke-width="1" fill="none" fill-rule="evenodd">
        <g id="nav" transform="translate(-372.000000, -10.000000)" fill="#4D4D4D" fill-rule="nonzero">
            <g transform="translate(195.000000, 0.000000)" id="Group">
                <g transform="translate(167.000000, 0.000000)">
                    <path d="M36.4373792,14.4444271 C36.7482998,14.4444271 37,14.1959375 37,13.8888542 L37,12.2221875 C37,10.9966146 35.9908262,10 34.7498857,10 L12.2500088,10 C11.0090683,10 10,10.9966146 10,12.2222396 L10,13.8889062 C10,14.1959896 10.2515947,14.4444792 10.5625154,14.4444792 L11.1250308,14.4444792 L11.1250308,28.8889063 L10.5625154,28.8889063 C10.2515947,28.8889062 10,29.1373958 10,29.4444271 C10,29.7515104 10.2515947,30 10.5625154,30 L12.8125242,30 C13.1233921,30 13.3749868,29.7515104 13.3749868,29.4444271 C13.3749868,29.1373437 13.1233921,28.8888542 12.8124714,28.8888542 L12.2500088,28.8888542 L12.2500088,22.2221875 L14.5000176,22.2221875 L14.5000176,27.2221875 C14.5000176,27.5292708 14.7516123,27.7777604 15.062533,27.7777604 L31.937467,27.7777604 C32.2483877,27.7777604 32.4999824,27.5292708 32.4999824,27.2221875 L32.4999824,22.2221875 L34.7499912,22.2221875 L34.7499912,28.8888542 L34.1874758,28.8888542 C33.8765552,28.8888542 33.6249604,29.1373438 33.6249604,29.4444271 C33.6249604,29.7515104 33.8765552,30 34.1874758,30 L36.4374846,30 C36.7484053,30 37,29.7515104 37,29.4444271 C37,29.1373437 36.7484053,28.8888542 36.4374846,28.8888542 L35.8749692,28.8888542 L35.8749692,14.4444271 L36.4373792,14.4444271 Z M22.9374319,23.8889062 C22.9374319,24.1959896 22.6858372,24.4444792 22.3749165,24.4444792 C22.0639958,24.4444792 21.8124011,24.1959896 21.8124011,23.8889062 L21.8124011,23.3333333 L20.6874231,23.3333333 L20.6874231,23.8889062 C20.6874231,24.1959896 20.4358284,24.4444792 20.1249077,24.4444792 C19.8139871,24.4444792 19.5623923,24.1959896 19.5623923,23.8889062 L19.5623923,20.5555729 C19.5623923,19.6365104 20.3193386,18.8889062 21.2498857,18.8889062 C22.1804329,18.8889062 22.9373792,19.6365104 22.9373792,20.5555729 L22.9373792,23.8889062 L22.9374319,23.8889062 Z M27.4374495,22.7777604 C27.4374495,23.6968229 26.6805032,24.4444271 25.7499561,24.4444271 L24.624978,24.4444271 C24.3140574,24.4444271 24.0624626,24.1959375 24.0624626,23.8888542 L24.0624626,19.4444271 C24.0624626,19.1373438 24.3140574,18.8888542 24.624978,18.8888542 L25.7499561,18.8888542 C26.6805032,18.8888542 27.4374495,19.6364583 27.4374495,20.5555208 L27.4374495,22.7777604 L27.4374495,22.7777604 Z M34.7499385,21.1110938 L32.499877,21.1110938 L32.499877,16.1110938 C32.499877,15.8040104 32.2482822,15.5555208 31.9373616,15.5555208 L15.0624802,15.5555208 C14.7515596,15.5555208 14.4999648,15.8040104 14.4999648,16.1110938 L14.4999648,21.1110938 L12.2500088,21.1110938 L12.2500088,14.4444271 L34.7499385,14.4444271 L34.7499385,21.1110938 L34.7499385,21.1110938 Z" id="Shape"></path>
                </g>
            </g>
        </g>
    </g>
</svg>