<?xml version="1.0" encoding="UTF-8"?>
<svg width="16px" height="16px" viewBox="0 0 16 16" version="1.1" xmlns="http://www.w3.org/2000/svg" xmlns:xlink="http://www.w3.org/1999/xlink">
    <title>Shape</title>
    <g id="Page-1" stroke="none" stroke-width="1" fill="none" fill-rule="evenodd">
        <g id="Карта" transform="translate(-143.000000, -123.000000)" fill="#4D4D4D">
            <g id="sidebar" transform="translate(-2.000000, 0.000000)">
                <g id="мои-маршруты" transform="translate(2.000000, 0.000000)">
                    <g id="Group-6" transform="translate(17.000000, 76.000000)">
                        <g id="Group-8" transform="translate(0.000000, 39.000000)">
                            <path d="M140.666667,23.488001 C140.666667,23.7706677 140.416,24 140.133334,24 L138.357334,24 C138.134356,24 137.926198,23.8883013 137.802668,23.7026676 L136.666668,22 L131.333336,22 L130.197337,23.7026676 C130.073807,23.8883013 129.865649,24 129.64267,24 L127.866671,24 C127.584004,24 127.333338,23.7706677 127.333338,23.488001 L127.333338,14.6666671 L126.097338,14.098667 C126.034534,14.0357069 125.999492,13.9502611 125.999999,13.8613337 L125.999999,11.6666669 C125.999999,10.6666668 126.965338,10.6666668 127.333338,10.6666668 L127.333338,10.3866668 C127.333338,9.52133343 127.802671,8.75333338 128.666671,8.48533336 C129.744004,8.15200001 131.124003,8 133.999999,8 C136.874668,8 138.256001,8.15200001 139.333334,8.48533336 C140.197334,8.75333338 140.666667,9.52133343 140.666667,10.3880001 L140.666667,10.6666668 C141.034667,10.6666668 141.999999,10.6666668 141.999999,11.6666669 L141.999999,13.8640004 C142.000165,13.9511639 141.966182,14.0349247 141.905333,14.0973337 L140.666667,14.6800004 L140.666667,23.4866676 L140.666667,23.488001 Z M134,9.77777789 C131.349333,9.77777789 129.686666,9.97135815 129.013333,10.3543705 C128.799852,10.4755032 128.666975,10.7076402 128.666666,10.9600002 L128.666666,15.4814819 C128.666666,15.7677042 128.866666,16.0000005 129.110666,16.0000005 L138.889333,16.0000005 C139.134667,16.0000005 139.333333,15.7677042 139.333333,15.4814819 L139.333333,10.8161977 C139.332,10.1234569 137.553333,9.77777789 134,9.77777789 Z M138,20.4444452 C138.73638,20.4444452 139.333333,19.8474915 139.333333,19.1111118 C139.333333,18.3747321 138.73638,17.7777784 138,17.7777784 C137.26362,17.7777784 136.666667,18.3747321 136.666667,19.1111118 C136.666667,19.8474915 137.26362,20.4444452 138,20.4444452 Z M130,20.4444452 C130.736379,20.4444452 131.333333,19.8474915 131.333333,19.1111118 C131.333333,18.3747321 130.736379,17.7777784 130,17.7777784 C129.26362,17.7777784 128.666666,18.3747321 128.666666,19.1111118 C128.666666,19.8474915 129.26362,20.4444452 130,20.4444452 Z" id="Shape"></path>
                        </g>
                    </g>
                </g>
            </g>
        </g>
    </g>
</svg>