<svg width="16" height="16" viewBox="0 0 16 16" fill="none" xmlns="http://www.w3.org/2000/svg">
<path fill-rule="evenodd" clip-rule="evenodd" d="M13.1088 2.26915C13.1088 2.88342 12.6049 3.37681 11.9829 3.37681C11.3608 3.37681 10.858 2.88342 10.8575 2.2697V1.10985C10.8575 0.494488 11.3603 0 11.9829 0C12.6055 0 13.1088 0.495038 13.1088 1.10985V2.26915ZM15.9827 1.91971H13.7164V2.48398C13.7164 3.41527 12.9488 4.17403 12.0024 4.17403C11.0548 4.17403 10.2889 3.41527 10.2889 2.48398V1.91971H5.71552V2.48398C5.71552 3.41527 4.94687 4.17403 4.00098 4.17403C3.05508 4.17403 2.28699 3.41582 2.28699 2.48398V1.91971L0 1.89169V16H1.14377H14.8579L16 15.9967L15.9827 1.91971ZM14.8568 14.8764H1.14377V5.86353H14.8579V14.8764H14.8568ZM3.98314 3.37681C4.60519 3.37681 5.10963 2.88342 5.10963 2.26915V1.10985C5.10963 0.494488 4.60519 0 3.98314 0C3.36109 0 2.85832 0.494488 2.85832 1.10985V2.2697C2.85832 2.88342 3.36053 3.37681 3.98314 3.37681ZM7.5198 7.07283H5.71886V8.63981H7.5198V7.07283ZM8.63069 7.07283H10.4333V8.63981H8.63069V7.07283ZM13.1322 7.07283H11.3313V8.63981H13.1322V7.07283ZM5.71886 9.67494H7.5198V11.2408H5.71886V9.67494ZM10.4333 9.67494H8.63069V11.2408H10.4333V9.67494ZM11.3313 9.67494H13.1322V11.2408H11.3313V9.67494ZM7.5198 12.3287H5.71886V13.8946H7.5198V12.3287ZM2.85832 9.67494H4.65814V11.2408H2.85832V9.67494ZM4.65814 12.3287H2.85832V13.8946H4.65814V12.3287ZM8.63069 12.3287H10.4333V13.8946H8.63069V12.3287ZM13.1322 12.3287H11.3313V13.8946H13.1322V12.3287Z" fill="#4D4D4D"/>
</svg>
