<?xml version="1.0" encoding="UTF-8"?>
<svg width="8px" height="8px" viewBox="0 0 8 8" version="1.1" xmlns="http://www.w3.org/2000/svg" xmlns:xlink="http://www.w3.org/1999/xlink">
    <title>Path</title>
    <g id="Page-1" stroke="none" stroke-width="1" fill="none" fill-rule="evenodd">
        <g id="Справочник" transform="translate(-366.000000, -639.000000)" fill="#999999" fill-rule="nonzero">
            <g id="Group-5-Copy-4" transform="translate(105.000000, 534.000000)">
                <g id="Group-3-Copy" transform="translate(0.000000, 39.000000)">
                    <path d="M264.9995,69.1915433 L261.975091,66.1671339 C261.752245,65.9442887 261.389979,65.9442887 261.167134,66.1671339 C260.944289,66.3899791 260.944289,66.7522454 261.167134,66.9750906 L264.191543,69.9995 L261.167134,73.0239094 C260.944289,73.2467546 260.944289,73.6090209 261.167134,73.8318661 C261.389979,74.0547113 261.752245,74.0547113 261.975091,73.8318661 L264.9995,70.8074567 L268.023909,73.8318661 C268.246755,74.0547113 268.609021,74.0547113 268.831866,73.8318661 C269.054711,73.6090209 269.054711,73.2467546 268.831866,73.0239094 L265.807457,69.9995 L268.831866,66.9750906 C269.054711,66.7522454 269.054711,66.3899791 268.831866,66.1671339 C268.609021,65.9442887 268.246755,65.9442887 268.023909,66.1671339 L264.9995,69.1915433 Z" id="Path"></path>
                </g>
            </g>
        </g>
    </g>
</svg>