<?xml version="1.0" encoding="UTF-8"?>
<svg width="12px" height="12px" viewBox="0 0 12 12" version="1.1" xmlns="http://www.w3.org/2000/svg" xmlns:xlink="http://www.w3.org/1999/xlink">
    <title>hide</title>
    <g id="Page-1" stroke="none" stroke-width="1" fill="none" fill-rule="evenodd">
        <g id="Справочник-2" transform="translate(-713.000000, -115.000000)" fill="#FFFFFF" fill-rule="nonzero">
            <g id="sidebar" transform="translate(99.000000, 30.000000)">
                <g id="right" transform="translate(401.000000, 13.000000)">
                    <g id="ТП" transform="translate(7.000000, 0.000000)">
                        <g id="тег" transform="translate(179.000000, 67.000000)">
                            <g id="hide" transform="translate(27.000000, 5.000000)">
                                <path d="M11.9267749,11.2197427 L0.780292443,0.0732133911 C0.682627713,-0.0244044637 0.524376631,-0.0244044637 0.426711901,0.0732133911 L0.0732485476,0.426700183 C-0.0244161825,0.524318037 -0.0244161825,0.682615994 0.0732485476,0.780257287 L2.14061424,2.84764642 C1.15351374,3.62877676 0.407305519,4.69364341 0.0119356285,5.92360495 C-0.0039316675,5.9731756 -0.0039316675,6.02687128 0.0119356285,6.07644193 C0.862277379,8.72246002 3.26878602,10.5000659 6.00002344,10.5000659 C7.06833543,10.5000659 8.09558464,10.2293844 9.01284091,9.71987309 L11.2197544,11.9267866 C11.3174192,12.0244045 11.4756702,12.0244045 11.573335,11.9267866 L11.9267983,11.5732998 C12.0244396,11.475682 12.0244396,11.317384 11.9267749,11.2197427 Z M6.00002344,9.50005127 C4.07007274,9.50005127 2.50000732,7.92996241 2.50000732,6.00003516 C2.50000732,5.24032684 2.74982934,4.50750152 3.19983242,3.90684116 L4.28675391,4.99378609 C4.10684643,5.29582722 4.00001758,5.63703268 4.00001758,6.00001172 C4.00001758,7.10280051 4.89723465,8.00001758 6.00002344,8.00001758 C6.36300248,8.00001758 6.70423138,7.89316529 7.00624907,7.71328124 L8.09317056,8.80020274 C7.4925102,9.25022925 6.75973176,9.50005127 6.00002344,9.50005127 Z" id="Shape"></path>
                                <path d="M5.7890845,4.15504598 C5.74977954,4.24856225 5.77101406,4.35696142 5.84280361,4.42872754 L7.57133105,6.15725498 C7.61919076,6.20511468 7.68315213,6.23049767 7.74809789,6.23049767 C7.78081686,6.23049767 7.81377021,6.22414606 7.84501261,6.2109741 C7.93876325,6.17141133 7.99930273,6.07937164 7.99810204,5.97758188 C7.98563857,4.88210564 7.11795295,4.01444346 6.02247672,4.00197462 C5.92286666,4.01270907 5.82862383,4.06129534 5.7890845,4.15504598 Z" id="Path"></path>
                                <path d="M4.20971432,2.79566169 C4.28466796,2.8708497 4.39916093,2.88990452 4.49438815,2.84448234 C4.97193047,2.61596515 5.4785355,2.49999561 6.00002344,2.49999561 C7.92997413,2.49999561 9.50003955,4.07008446 9.50003955,6.00001172 C9.50003955,6.52149966 9.38407001,7.02810468 9.15555282,7.50564701 C9.10989626,7.60134298 9.12941983,7.71536719 9.20437347,7.79032083 L10.0708403,8.65678769 C10.1177156,8.70366301 10.1811848,8.73003038 10.2476072,8.73003038 C10.2478415,8.73003038 10.2480994,8.73003038 10.2480994,8.73003038 C10.3147561,8.729796 10.3784831,8.70317082 10.4253584,8.65606113 C11.1358242,7.93851716 11.6763435,7.04643293 11.9881112,6.07644193 C12.0039785,6.02687128 12.0039785,5.9731756 11.9881112,5.92360495 C11.1377695,3.27758686 8.73126086,1.49998096 6.00002344,1.49998096 C5.2505105,1.49998096 4.51393515,1.63327093 3.81054753,1.89647585 C3.73095324,1.92626512 3.6718669,1.99437496 3.65379646,2.07762553 C3.63572603,2.16064172 3.66136683,2.24731419 3.72141411,2.30736148 L4.20971432,2.79566169 Z" id="Path"></path>
                            </g>
                        </g>
                    </g>
                </g>
            </g>
        </g>
    </g>
</svg>