<?xml version="1.0" encoding="UTF-8"?>
<svg width="14px" height="16px" viewBox="0 0 14 16" version="1.1" xmlns="http://www.w3.org/2000/svg" xmlns:xlink="http://www.w3.org/1999/xlink">
    <title>Shape</title>
    <g id="Page-1" stroke="none" stroke-width="1" fill="none" fill-rule="evenodd">
        <g id="Справочник" transform="translate(-507.000000, -430.000000)" fill="#4D4D4D" fill-rule="nonzero">
            <g id="right" transform="translate(504.000000, 100.000000)">
                <g id="Group-28" transform="translate(0.000000, 261.000000)">
                    <g id="Group-25" transform="translate(0.000000, 41.000000)">
                        <g id="Group-24" transform="translate(2.991687, 28.000000)">
                            <path d="M6.51853643,16 C9.20803241,12.313291 13.0370729,10.8908316 13.0370729,6.51849923 C13.0370729,2.78321831 10.2538173,0 6.51853643,0 C2.78444563,0 0,2.78321831 0,6.51853643 C0,10.8902738 3.83026775,12.3144812 6.51853643,16 Z M6.51853643,4.98569293 C7.49786033,4.98569293 8.29632247,5.78411788 8.29632247,6.76347898 C8.29632247,7.74243097 7.49786033,8.54126502 6.51853643,8.54126502 C5.53913814,8.54126502 4.74075038,7.74243097 4.74075038,6.76347898 C4.74075038,5.78411788 5.53913814,4.98569293 6.51853643,4.98569293 Z" id="Shape"></path>
                        </g>
                    </g>
                </g>
            </g>
        </g>
    </g>
</svg>