<?xml version="1.0" encoding="UTF-8"?>
<svg width="16px" height="16px" viewBox="0 0 16 16" version="1.1" xmlns="http://www.w3.org/2000/svg" xmlns:xlink="http://www.w3.org/1999/xlink">
    <title>Combined Shape</title>
    <g id="Page-1" stroke="none" stroke-width="1" fill="none" fill-rule="evenodd">
        <g id="Справочник" transform="translate(-507.000000, -456.000000)" fill="#4D4D4D" fill-rule="nonzero">
            <g id="right" transform="translate(504.000000, 100.000000)">
                <g id="Group-28" transform="translate(0.000000, 261.000000)">
                    <g id="Group-25-Copy" transform="translate(2.000000, 95.000000)">
                        <g id="Group-23" transform="translate(1.000000, 0.000000)">
                            <path d="M6.785,11.757 C6.94,11.652 7.14,11.64 7.304,11.727 L7.304,11.727 L13.597,15.059 C13.799,15.166 13.903,15.397 13.847,15.62 C13.792,15.844 13.591,16 13.362,16 L13.362,16 L2.257,16 C2.039,16 1.845,15.857 1.781,15.65 C1.715,15.441 1.793,15.214 1.973,15.089 L1.973,15.089 Z M13.45,7.143 C13.586,7.049 13.761,7.028 13.917,7.089 C14.072,7.15 14.187,7.283 14.223,7.446 L14.223,7.446 L15.703,14.109 C15.745,14.3 15.672,14.497 15.517,14.615 C15.428,14.684 15.321,14.718 15.214,14.718 C15.134,14.718 15.054,14.698 14.98,14.659 L14.98,14.659 L8.688,11.327 C8.534,11.246 8.433,11.09 8.423,10.915 C8.412,10.742 8.493,10.575 8.637,10.475 L8.637,10.475 Z M11.743,6 C11.962,6 12.155,6.142 12.221,6.351 C12.285,6.56 12.208,6.787 12.027,6.91 L12.027,6.91 L1.104,14.473 C1.018,14.533 0.919,14.562 0.819,14.562 C0.722,14.562 0.624,14.534 0.54,14.477 C0.37,14.362 0.287,14.155 0.331,13.954 L0.331,13.954 L1.541,8.508 C1.887,8.938 2.189,9.285 2.384,9.502 C2.668,9.818 3.075,10 3.5,10 C3.925,10 4.332,9.818 4.616,9.502 C5.121,8.94 6.349,7.503 7.179,6 L7.179,6 Z M3.5,0 C5.43,0 7,1.57 7,3.5 C7,5.00632258 5.02475754,7.48690114 4.19878997,8.45852318 L4.03000557,8.65482716 C3.95723621,8.73845578 3.90296774,8.79945161 3.872,8.834 C3.777,8.939 3.642,9 3.5,9 C3.358,9 3.223,8.939 3.128,8.834 C3.09703226,8.79945161 3.04276379,8.73845578 2.96999443,8.65482716 L2.80121003,8.45852318 C1.97524246,7.48690114 0,5.00632258 0,3.5 C0,1.57 1.57,0 3.5,0 Z M3.5,2 C2.672,2 2,2.672 2,3.5 C2,4.328 2.672,5 3.5,5 C4.328,5 5,4.328 5,3.5 C5,2.672 4.328,2 3.5,2 Z" id="Combined-Shape"></path>
                        </g>
                    </g>
                </g>
            </g>
        </g>
    </g>
</svg>