<?xml version="1.0" encoding="UTF-8"?>
<svg width="14px" height="16px" viewBox="0 0 14 16" version="1.1" xmlns="http://www.w3.org/2000/svg" xmlns:xlink="http://www.w3.org/1999/xlink">
    <title>Combined Shape</title>
    <g id="Page-1" stroke="none" stroke-width="1" fill="none" fill-rule="evenodd">
        <g id="Справочник" transform="translate(-507.000000, -572.000000)" fill="#4D4D4D" fill-rule="nonzero">
            <g id="right" transform="translate(504.000000, 100.000000)">
                <g id="Group-28" transform="translate(0.000000, 261.000000)">
                    <g id="Group-25-Copy-3" transform="translate(3.000000, 183.000000)">
                        <g id="Group-24" transform="translate(0.000000, 28.000000)">
                            <path d="M4.06282621,2.62804038 C6.3031095,2.62804038 8.12568426,4.45064698 8.12568426,6.69093028 C8.12568426,7.34690178 7.96916695,7.96701602 7.69186223,8.51614815 L7.69186223,8.51614815 L4.06282621,16 L0.434363386,8.51732641 C0.156708374,7.96790768 -4.08562073e-13,7.3474113 -4.08562073e-13,6.69093028 C-4.08562073e-13,4.45064698 1.82257475,2.62804038 4.06282621,2.62804038 Z M13.3697942,0.00421803385 C13.3956203,-0.00511249928 13.3912576,0.000746948145 13.4029446,0.024694255 C13.4180709,0.0555518885 13.4331017,0.0863776772 13.4481643,0.117299 L13.4481643,0.117299 L13.5244326,0.273466012 C13.3922129,0.334862831 13.2632096,0.403838718 13.1362761,0.475616949 C13.0619184,0.517588425 12.988325,0.561120298 12.9153049,0.605480137 L12.9153049,0.605480137 L12.8271584,0.659902939 C12.8544494,0.701460433 12.8818996,0.742922393 12.9092543,0.784416197 L12.9092543,0.784416197 L12.9985154,0.724038413 C13.0662175,0.678946143 13.1344928,0.634681839 13.2035324,0.591691328 C13.3249567,0.516187253 13.4483554,0.443294453 13.5754162,0.377598583 L13.5754162,0.377598583 L13.6875418,0.607358981 C13.7114254,0.656272629 13.7164569,0.649680751 13.6688171,0.683595487 C13.607675,0.726872602 13.5474564,0.771582733 13.4880658,0.817311899 C13.1901894,1.04637171 12.9099868,1.30014311 12.6545594,1.57579189 C12.2389527,2.02413516 11.8616552,2.55533865 11.7013165,3.15268384 C11.6177239,3.46415805 11.5952733,3.78216045 11.6587081,4.09974887 C11.7100738,4.35705504 11.814079,4.60945711 11.9555019,4.83042834 C12.0389035,4.96080104 12.1228146,5.09407163 12.2248773,5.21106951 C12.2928023,5.28886641 12.3617145,5.36631302 12.4243532,5.44847266 C12.5346318,5.59339845 12.6405477,5.73975726 12.7411137,5.8917526 C12.9676259,6.23408444 13.1482497,6.61150929 13.2747055,7.00160837 C13.4665387,7.59334887 13.5246237,8.2248954 13.4399165,8.84134748 C13.3570881,9.4446795 13.1358939,10.0263252 12.8325083,10.5523061 C12.2281891,11.5998416 11.3110901,12.4342715 10.3390268,13.1353671 C9.32190319,13.8648046 8.21612356,14.4652388 7.08139698,14.9898185 C6.5230617,15.2479527 5.95606462,15.4875213 5.38225276,15.7091294 C5.16688622,15.7922125 4.95053249,15.8741811 4.73290497,15.9526786 L4.73290497,15.9526786 L6.16668628,12.9958231 C6.34603633,12.9355408 6.52497239,12.8738893 6.70285757,12.8094672 C7.19728029,12.6303401 7.68606648,12.4340486 8.16421649,12.2148288 C8.17087206,12.2117717 8.17517111,12.2098292 8.17835559,12.2083325 C8.17529849,12.2097655 8.17144527,12.2114851 8.16733729,12.2133958 C8.18532961,12.2052435 8.27245705,12.1656286 8.27226598,12.1650872 C8.2678077,12.1551835 8.26347681,12.1451205 8.25908222,12.1351531 C8.23367005,12.0774821 8.20816235,12.0196519 8.18268649,11.9619172 C8.12093938,11.8219274 8.05931965,11.6820968 7.99760438,11.5421069 L7.99760438,11.5421069 L7.97912023,11.4981139 L7.97912023,11.4981139 L7.97477164,11.487493 C7.97477164,11.487493 7.95130201,11.4976515 7.94133458,11.5017595 C7.81987842,11.5512464 7.69832673,11.6000327 7.57601077,11.6472267 C7.29096776,11.7572505 7.00274026,11.8587081 6.71292053,11.9551661 C6.69642491,11.9607071 6.6798656,11.965866 6.66336999,11.9713433 L6.66336999,11.9713433 L7.86634002,9.49047235 C7.885224,9.4843263 7.90417167,9.47853055 7.92305565,9.47225711 C8.5083635,9.27806738 9.0936395,9.04196987 9.60764679,8.69626247 C9.72817944,8.61512186 9.84403091,8.52710277 9.95195301,8.42968946 C10.053952,8.33765792 10.1606958,8.23451254 10.2306589,8.11515814 C10.2972783,8.00140843 10.3420839,7.88705367 10.3573695,7.75512057 C10.3729734,7.62063988 10.3672413,7.47342127 10.3368932,7.34132894 C10.3039338,7.19789986 10.2655608,7.0592475 10.2128258,6.9214231 C10.1317807,6.70962319 10.01577,6.51151654 9.94195374,6.29713719 C9.83384056,5.99996131 9.72865711,5.70278542 9.67076322,5.39099276 C9.61360177,5.08327623 9.57287224,4.77536864 9.5771076,4.46163344 C9.58567386,3.83922638 9.73534453,3.23006676 10.0201328,2.67631713 C10.3041886,2.1241279 10.7184261,1.65683697 11.1848253,1.2521848 C11.6342513,0.8622131 12.1545957,0.548000231 12.689748,0.290757751 C12.9115153,0.184141284 13.1382505,0.0878106942 13.3697942,0.00421803385 Z M11.2167657,9.23243375 L11.1786474,9.28230275 C11.0168757,9.50594894 10.8380034,9.71144358 10.6364256,9.90034707 C10.2272834,10.2835995 9.75572521,10.5888003 9.27095147,10.8663916 C9.38527439,11.0611227 9.4995973,11.2558857 9.61392022,11.4505531 C10.0007074,11.2070357 10.3765082,10.9479462 10.7218335,10.6473948 C11.08824,10.3285326 11.4025165,9.97171132 11.6695354,9.56648595 C11.6697265,9.56635857 11.6704907,9.565244 11.6727836,9.56177291 C11.6826236,9.54514991 11.6890244,9.53301704 11.6890244,9.53301704 L11.6890244,9.53301704 L11.2167657,9.23243375 Z M4.06282621,4.4424947 C2.82310725,4.4424947 1.81445432,5.45111578 1.81445432,6.69089843 C1.81445432,7.93064923 2.8230754,8.93920662 4.06282621,8.93920662 C5.30254517,8.93920662 6.31119809,7.93064923 6.31119809,6.69089843 C6.31119809,5.45114763 5.30254517,4.4424947 4.06282621,4.4424947 Z M11.1227916,5.41404841 C11.1227916,5.41404841 11.0056345,5.46742033 10.963886,5.48620878 L10.963886,5.48620878 L10.7690912,5.5740368 C10.8546264,5.75851386 10.9426136,5.9385008 11.0438165,6.11501665 C11.1609099,6.3195241 11.2814107,6.52272592 11.3763719,6.73879304 C11.5479518,7.12905135 11.6597272,7.55529431 11.6387096,7.98421223 C11.8057675,7.98739671 11.9728892,7.99061304 12.1399471,7.99379752 C12.1423355,7.41587767 11.9525722,6.86114085 11.6761591,6.3595212 L11.6786465,6.36384384 L11.678,6.362 L11.6728154,6.35318408 C11.6669984,6.34290882 11.6658945,6.34099813 11.6669465,6.34291354 L11.666,6.343 L11.5260546,6.10785555 L11.5260546,6.10785555 L11.3772954,5.8705121 C11.2892764,5.72845235 11.2102375,5.58457743 11.1333641,5.43618056 L11.1333641,5.43618056 Z M11.6500782,1.58518612 C11.6500782,1.58518612 11.598617,1.64241126 11.5818347,1.66008514 C11.5352139,1.70934908 11.4875741,1.75794428 11.4431505,1.80924629 C11.2587372,2.02216078 11.0877623,2.24507454 10.943346,2.48731811 C10.6590673,2.96393957 10.4822967,3.50304058 10.4661832,4.05940148 C10.574583,4.06093003 10.6830146,4.06249043 10.7913507,4.06405083 C10.7846314,3.64624675 10.8812805,3.23283726 11.0513955,2.85200502 C11.2332613,2.44512372 11.4934972,2.09072268 11.7841449,1.75590621 C11.7905457,1.74832714 11.7972013,1.74097099 11.8042071,1.73396513 C11.8035702,1.73339192 11.8030926,1.73285056 11.8024557,1.73227735 C11.7555164,1.68731246 11.6500782,1.58518612 11.6500782,1.58518612 Z" id="Combined-Shape"></path>
                        </g>
                    </g>
                </g>
            </g>
        </g>
    </g>
</svg>