<?xml version="1.0" encoding="UTF-8"?>
<svg width="10px" height="16px" viewBox="0 0 10 16" version="1.1" xmlns="http://www.w3.org/2000/svg" xmlns:xlink="http://www.w3.org/1999/xlink">
    <title>Shape</title>
    <g id="Page-1" stroke="none" stroke-width="1" fill="none" fill-rule="evenodd">
        <g id="Справочник" transform="translate(-509.000000, -544.000000)" fill="#4D4D4D" fill-rule="nonzero">
            <g id="right" transform="translate(504.000000, 100.000000)">
                <g id="Group-28" transform="translate(0.000000, 261.000000)">
                    <g id="Group-25-Copy-3" transform="translate(3.000000, 183.000000)">
                        <g id="location-on-road" transform="translate(2.732905, 0.000000)">
                            <path d="M8.98119953,0.609160627 C8.94370281,0.532378583 8.90620609,0.4555646 8.86874131,0.378718677 C8.74130355,0.444609425 8.61753882,0.517718451 8.49575432,0.593446499 C8.42650995,0.636564535 8.35803212,0.680960143 8.2901292,0.726186172 L8.20060338,0.786743059 C8.17316753,0.745126169 8.14563587,0.703541218 8.1182639,0.66186045 L8.20667184,0.607276209 C8.27990862,0.562784784 8.35372031,0.519123779 8.42829855,0.4770278 C8.55560854,0.405036649 8.68499459,0.335856155 8.81760651,0.274277211 C8.7921509,0.222056478 8.76663141,0.169835745 8.74111192,0.117646951 C8.72600464,0.0866339046 8.71092929,0.0557166755 8.69575813,0.0247675071 C8.68403641,0.000749163863 8.6884121,-0.0051276648 8.66250933,0.00423054606 C8.43027878,0.0880711724 8.20287107,0.184687513 7.98044588,0.291620244 C7.44370617,0.549625798 6.92181823,0.864770735 6.47105909,1.25589923 C6.0032763,1.66175174 5.58781007,2.13042883 5.30291163,2.68425605 C5.0172786,3.2396483 4.86716395,3.85061491 4.85857228,4.47486826 C4.85432436,4.78953411 4.8951747,5.09835506 4.95250572,5.40698439 C5.01057135,5.71970194 5.11606681,6.01775936 5.22450069,6.31581678 C5.29853595,6.53083205 5.41489077,6.72952635 5.49617625,6.94195455 C5.54906771,7.08018778 5.58755455,7.21925143 5.62061171,7.36310597 C5.65104985,7.49559013 5.65679892,7.64324545 5.64114867,7.77812506 C5.62581782,7.91044952 5.58087924,8.0251435 5.51406225,8.13923063 C5.44389164,8.25893907 5.33683115,8.36239042 5.23452962,8.45469496 C5.12628738,8.55239724 5.01009226,8.64067742 4.88920206,8.72205872 C4.37367004,9.06879162 3.7866579,9.30558948 3.19961382,9.50035525 C3.18067382,9.50664729 3.16166994,9.51246024 3.14272995,9.51862452 L1.93619147,12.0068546 C1.95273602,12.0013611 1.96934445,11.9961869 1.985889,11.9906295 C2.27656844,11.8938854 2.56565092,11.7921268 2.85153948,11.6817766 C2.97421827,11.6344425 3.09613053,11.5855116 3.21794697,11.5358779 C3.22794396,11.5317577 3.25148322,11.5215691 3.25148322,11.5215691 C3.25148322,11.5215691 3.26729316,11.5603753 3.27438369,11.576345 C3.33628202,11.7167501 3.39808454,11.8569955 3.46001482,11.9974006 C3.48556625,12.0553065 3.51114961,12.1133083 3.53663716,12.1711503 C3.54104479,12.1811473 3.54538853,12.1912401 3.54986003,12.2011732 C3.55005167,12.2017162 3.46266578,12.2414487 3.44462008,12.2496251 C3.44874025,12.2477088 3.4526049,12.2459841 3.45567107,12.2445468 C3.45247715,12.2460479 3.44816534,12.2479962 3.44149003,12.2510624 C2.96192165,12.4709324 2.47168554,12.6678062 1.97579619,12.8474647 C1.79738333,12.9120779 1.61791648,12.9739123 1.43803442,13.0343734 L-3.90798505e-14,16 C0.218273082,15.9212697 0.435268593,15.8390579 0.651273986,15.7557283 C1.22678798,15.5334628 1.79546698,15.2931836 2.35545848,15.0342837 C3.49355107,14.5081479 4.60261084,13.9059326 5.62275165,13.1743313 C6.59769836,12.471156 7.51751786,11.6342509 8.1236297,10.5836081 C8.42791528,10.0560669 8.64976556,9.47269583 8.73283964,8.86757411 C8.81779814,8.24929341 8.75954089,7.61587348 8.56713863,7.02237767 C8.44030772,6.63112141 8.25914809,6.25257699 8.03196395,5.90922966 C7.93109968,5.75678345 7.82486961,5.60999049 7.71426387,5.4646348 C7.65143929,5.38223144 7.58232267,5.3045551 7.51419618,5.22652742 C7.41183076,5.10918248 7.32767074,4.97551657 7.24402175,4.84475713 C7.10217938,4.62313043 6.99786567,4.36997964 6.94634761,4.11191021 C6.88272455,3.79337971 6.90524174,3.474434 6.98908237,3.16203584 C7.14989668,2.56291871 7.52831334,2.03013947 7.94515297,1.58046626 C8.20133798,1.3039998 8.48237176,1.04947563 8.78113184,0.819736342 C8.84069861,0.773871526 8.9010958,0.729028769 8.96241923,0.685623279 C9.0102004,0.651607939 9.005154,0.658219371 8.98119953,0.609160627 Z M6.97675381,9.56129541 C6.97675381,9.56129541 6.97033401,9.57346428 6.96046477,9.59013658 C6.95816514,9.59361797 6.9573986,9.59473584 6.95720696,9.5948636 C6.68939605,10.001291 6.37418723,10.3591707 6.00669381,10.6789788 C5.66034419,10.9804218 5.28342867,11.2402798 4.8954941,11.4845195 C4.78083206,11.2892747 4.66617002,11.093934 4.55150799,10.8986253 C5.03771974,10.6202105 5.51067669,10.3141044 5.92103264,9.92971508 C6.12320832,9.74025123 6.30261129,9.53414702 6.46486287,9.30983741 L6.50309419,9.25982049 L6.97675381,9.56129541 M6.95749442,6.36691964 C6.95362976,6.35998881 6.95174535,6.35657131 6.96049671,6.37202992 C6.96860929,6.38669005 6.96736366,6.38451818 6.96385034,6.37838584 C7.24108334,6.88149348 7.43140955,7.43787584 7.4290141,8.01751001 C7.2614606,8.01431608 7.09384323,8.01109021 6.92628973,8.00789628 C6.94736966,7.57770604 6.83526277,7.15019869 6.66317389,6.75878274 C6.56793094,6.54207468 6.44707268,6.3382701 6.32963193,6.133156 C6.22812888,5.95611654 6.13988063,5.77559569 6.05409171,5.59057141 C6.11921591,5.56118726 6.18434012,5.53180312 6.24946432,5.50248285 C6.29133672,5.48363867 6.40884136,5.43010843 6.40884136,5.43010843 L6.4194452,5.45230623 C6.49654664,5.60114331 6.57581995,5.745445 6.66410013,5.88792616 C6.76279253,6.04717544 6.86547733,6.2038057 6.95749442,6.36691964 Z M7.07215645,1.76111486 C6.78064659,2.09692452 6.51963874,2.45237684 6.33723348,2.8604651 C6.16661381,3.24242702 6.06967808,3.65706283 6.07641727,4.07610627 C5.96775982,4.07454124 5.85900655,4.07297622 5.75028522,4.07144313 C5.76644649,3.51343186 5.94374147,2.97273169 6.22886348,2.49469639 C6.37370814,2.25173424 6.54519017,2.02815924 6.73015058,1.81461317 C6.77470588,1.76315898 6.82248705,1.71441963 6.86924617,1.66500955 C6.88607817,1.64728325 6.93769206,1.58988835 6.93769206,1.58988835 C6.93769206,1.58988835 7.04344304,1.69231764 7.09052154,1.73741591 C7.09116033,1.73799082 7.09163942,1.73853379 7.09227821,1.7391087 C7.08525156,1.74613534 7.07857625,1.75351331 7.07215645,1.76111486 Z" id="Shape"></path>
                        </g>
                    </g>
                </g>
            </g>
        </g>
    </g>
</svg>