<?xml version="1.0" encoding="UTF-8"?>
<svg width="16px" height="20px" viewBox="0 0 16 20" version="1.1" xmlns="http://www.w3.org/2000/svg" xmlns:xlink="http://www.w3.org/1999/xlink">
    <title>Shape</title>
    <g id="Page-1" stroke="none" stroke-width="1" fill="none" fill-rule="evenodd">
        <g id="Справочник" transform="translate(-572.000000, -684.000000)" fill="#4D4D4D" fill-rule="nonzero">
            <g id="Group-2" transform="translate(572.000000, 645.000000)">
                <g id="Group-23" transform="translate(0.000000, 39.000000)">
                    <path d="M2.70085991,1.54109207 C2.36527127,1.64306705 2.107501,1.91362724 2.02148493,2.25417592 C1.93546886,2.59472461 2.03376987,2.95552376 2.28056541,3.20509207 L5.77569852,6.70609207 C5.9643818,6.89509207 6.2199528,6.99909207 6.48051542,6.99909207 L6.72610318,6.96809207 C7.06668428,6.8831394 7.33703251,6.6241279 7.43691003,6.28709207 L8.93539469,1.28709207 C9.03928461,0.934700422 8.94249452,0.55361338 8.68311339,0.293796854 C8.42373225,0.0339803274 8.04328383,-0.0629722365 7.69148271,0.041092071 L2.70085991,1.54109207 L2.70085991,1.54109207 Z M8.97133436,19.9980921 C10.6254121,19.9980921 11.966307,18.6549463 11.966307,16.9980921 C11.966307,15.3412378 10.6254121,13.9980921 8.97133436,13.9980921 C7.31725663,13.9980921 5.97636169,15.3412378 5.97636169,16.9980921 C5.97636169,18.6549463 7.31725663,19.9980921 8.97133436,19.9980921 L8.97133436,19.9980921 Z M1.37308869,6.38809207 C-0.234213315,7.80309207 -0.462829562,10.3170921 0.858951712,12.0140921 C2.18871958,13.7220921 4.61464745,14.0000921 6.27685728,12.6340921 L10.870147,8.85909207 C11.2860929,8.51676021 11.8229256,8.35816891 12.3577581,8.41962144 C12.8925907,8.48107397 13.3796289,8.75730855 13.7073845,9.18509207 C14.4122014,10.0900921 14.2874109,11.4480921 13.4308487,12.2020921 L12.4504943,13.0660921 C12.0646327,13.4095214 12.0204502,13.9976917 12.3506619,14.3950921 C12.6801089,14.7900921 13.2591369,14.8360921 13.6444901,14.4980921 L14.6248445,13.6340921 C16.2341431,12.2180921 16.4637577,9.70609207 15.1399798,8.00809207 C14.5144093,7.19100654 13.5843689,6.66345362 12.5630615,6.54636986 C11.5417541,6.4292861 10.5167684,6.73271274 9.72307251,7.38709207 L5.12978275,11.1610921 C4.71412925,11.5044029 4.17700309,11.6637049 3.64175402,11.6024147 C3.10650496,11.5411246 2.61912758,11.264509 2.29154697,10.8360921 C1.58872672,9.93309207 1.71251892,8.57209207 2.56808278,7.82009207 L3.54843717,6.95609207 C3.74088515,6.79498557 3.86007561,6.56274151 3.87888027,6.31221972 C3.89768493,6.06169794 3.81450391,5.81421244 3.6482696,5.62609207 C3.28787455,5.19309207 2.52715149,5.37109207 2.3544414,5.52409207 L1.37308869,6.38809207 L1.37308869,6.38809207 Z" id="Shape"></path>
                </g>
            </g>
        </g>
    </g>
</svg>