<?xml version="1.0" encoding="UTF-8"?>
<svg width="16px" height="18px" viewBox="0 0 16 18" version="1.1" xmlns="http://www.w3.org/2000/svg" xmlns:xlink="http://www.w3.org/1999/xlink">
    <title>share</title>
    <g id="Page-1" stroke="none" stroke-width="1" fill="none" fill-rule="evenodd">
        <g id="Карта" transform="translate(-214.000000, -825.000000)" fill="#FFFFFF" fill-rule="nonzero">
            <g id="заказ" transform="translate(201.000000, 813.000000)">
                <g id="Group-13" transform="translate(13.000000, 12.000000)">
                    <g id="share" transform="translate(0.000000, 0.000000)">
                        <path d="M16,2.99991547 C16,4.65680723 14.6569384,6 13,6 C11.3430616,6 10,4.65680723 10,2.99991547 C10,1.34319277 11.3430616,0 13,0 C14.6569384,0 16,1.34319277 16,2.99991547 L16,2.99991547 Z" id="Path"></path>
                        <path d="M13,6 C11.3454337,6 10,4.65445971 10,2.99993132 C10,1.34554029 11.3454337,0 13,0 C14.6545663,0 16,1.34554029 16,2.99993132 C16,4.65445971 14.6545663,6 13,6 Z M13,1.12499142 C11.9657587,1.12499142 11.1250172,1.96653773 11.1250172,2.99993132 C11.1250172,4.03346227 11.9657587,4.87500858 13,4.87500858 C14.0342413,4.87500858 14.8749828,4.03346227 14.8749828,2.99993132 C14.8749828,1.96653773 14.0342413,1.12499142 13,1.12499142 Z" id="Shape"></path>
                        <path d="M16,15.0000845 C16,16.6568072 14.6569384,18 13,18 C11.3430616,18 10,16.6568072 10,15.0000845 C10,13.3431928 11.3430616,12 13,12 C14.6569384,12 16,13.3431928 16,15.0000845 L16,15.0000845 Z" id="Path"></path>
                        <path d="M13,18 C11.3454337,18 10,16.6544597 10,15.0000687 C10,13.3455403 11.3454337,12 13,12 C14.6545663,12 16,13.3455403 16,15.0000687 C16,16.6544597 14.6545663,18 13,18 Z M13,13.1249914 C11.9657587,13.1249914 11.1250172,13.9665377 11.1250172,15.0000687 C11.1250172,16.0334623 11.9657587,16.8750086 13,16.8750086 C14.0342413,16.8750086 14.8749828,16.0334623 14.8749828,15.0000687 C14.8749828,13.9665377 14.0342413,13.1249914 13,13.1249914 L13,13.1249914 Z" id="Shape"></path>
                        <path d="M6,9 C6,10.6569384 4.65680723,12 2.99991547,12 C1.34319277,12 0,10.6569384 0,9 C0,7.34306156 1.34319277,6 2.99991547,6 C4.65680723,6 6,7.34306156 6,9 Z" id="Path"></path>
                        <path d="M2.99993132,12 C1.34554029,12 0,10.6545663 0,9 C0,7.34543373 1.34554029,6 2.99993132,6 C4.65445971,6 6,7.34543373 6,9 C6,10.6545663 4.65445971,12 2.99993132,12 Z M2.99993132,7.12501717 C1.96571374,7.12501717 1.12499142,7.96644539 1.12499142,9 C1.12499142,10.0335546 1.96571374,10.8749828 2.99993132,10.8749828 C4.03428622,10.8749828 4.87500858,10.0335546 4.87500858,9 C4.87500858,7.96644539 4.03428622,7.12501717 2.99993132,7.12501717 Z" id="Shape"></path>
                        <path d="M4.7099996,8 C4.46310672,8 4.22335695,7.87581637 4.09283231,7.65369212 C3.89918827,7.32521447 4.01841378,6.90620456 4.3581675,6.71823398 L10.9395969,3.09066537 C11.2793506,2.90206698 11.7127444,3.0173355 11.9071677,3.34706882 C12.1008117,3.67554647 11.9815862,4.09455638 11.6418325,4.28252695 L5.0602732,7.91009557 C4.94961947,7.97112007 4.82909522,8 4.7099996,8 Z" id="Path"></path>
                        <path d="M11.2900922,15 C11.1708657,15 11.0503405,14.9711193 10.9396859,14.9100931 L4.35807279,11.2824267 C4.01831631,11.0952045 3.89921972,10.6761833 4.0928653,10.3469434 C4.28573168,10.0178291 4.71977837,9.90192956 5.06031414,10.090533 L11.6419272,13.7181994 C11.9816837,13.9054217 12.1007803,14.3244429 11.9071347,14.6536828 C11.7759596,14.875813 11.5362079,15 11.2900922,15 L11.2900922,15 Z" id="Path"></path>
                    </g>
                </g>
            </g>
        </g>
    </g>
</svg>