<?xml version="1.0" encoding="UTF-8"?>
<svg width="17px" height="16px" viewBox="0 0 17 16" version="1.1" xmlns="http://www.w3.org/2000/svg" xmlns:xlink="http://www.w3.org/1999/xlink">
    <title>Path</title>
    <g id="Page-1" stroke="none" stroke-width="1" fill="none" fill-rule="evenodd">
        <g id="Справочник" transform="translate(-506.000000, -628.000000)" fill="#4D4D4D" fill-rule="nonzero">
            <g id="right" transform="translate(504.000000, 100.000000)">
                <g id="Group-28" transform="translate(0.000000, 261.000000)">
                    <g id="Group-25-Copy-4" transform="translate(1.000000, 238.000000)">
                        <g id="Group-24" transform="translate(1.000000, 29.000000)">
                            <path d="M16.6524682,6.0454918 C16.5425363,5.7074161 16.2426756,5.46806256 15.8893139,5.43608931 L11.0696331,4.99852713 L9.16486819,0.53908682 C9.02423685,0.21145655 8.70424959,0 8.34808542,0 C7.99192126,0 7.67180659,0.21145655 7.53206694,0.53908682 L5.62730201,4.99852713 L0.806856973,5.43608931 C0.453495227,5.46869947 0.154271478,5.70805301 0.0437026315,6.0454918 C-0.0662293061,6.38356753 0.0352953066,6.7543808 0.302545831,6.98876637 L3.94584028,10.1834163 L2.87161553,14.9146929 C2.79301995,15.2625771 2.92804638,15.622308 3.21669733,15.8309621 C3.37185041,15.9436965 3.55413612,16 3.73705877,16 C3.89424998,16 4.05156857,15.9582182 4.19207251,15.8741451 L8.34808542,13.3891485 L12.503334,15.8741451 C12.8081626,16.0563035 13.1914595,16.0396163 13.4794735,15.8309621 C13.7681244,15.622308 13.9031509,15.2625771 13.8245553,14.9146929 L12.7503306,10.1834163 L16.393625,6.98876637 C16.6607481,6.7543808 16.7624002,6.38433185 16.6524682,6.0454918 Z" id="Path"></path>
                        </g>
                    </g>
                </g>
            </g>
        </g>
    </g>
</svg>