<?xml version="1.0" encoding="UTF-8"?>
<svg width="18px" height="16px" viewBox="0 0 18 16" version="1.1" xmlns="http://www.w3.org/2000/svg" xmlns:xlink="http://www.w3.org/1999/xlink">
    <title>Combined Shape</title>
    <g id="Page-1" stroke="none" stroke-width="1" fill="none" fill-rule="evenodd">
        <g id="Справочник" transform="translate(-505.000000, -599.000000)" fill="#4D4D4D" fill-rule="nonzero">
            <g id="right" transform="translate(504.000000, 100.000000)">
                <g id="Group-28" transform="translate(0.000000, 261.000000)">
                    <g id="star-2" transform="translate(1.000000, 238.000000)">
                        <path d="M3.46357359,8.32967909 C3.66150815,7.90816664 4.35307706,7.90816664 4.55101161,8.32967909 L4.55101161,8.32967909 L5.46776113,10.2817786 L7.50400285,10.5935055 C7.98882231,10.6680315 8.18355145,11.2586297 7.84377715,11.6072189 L7.84377715,11.6072189 L6.35325783,13.1354019 L6.7058538,15.3006617 C6.78759195,15.7999055 6.25469123,16.1637204 5.82195981,15.9233141 L5.82195981,15.9233141 L4.00769328,14.9208197 L2.19342675,15.9233141 C1.75508585,16.1669259 1.22859596,15.794296 1.30953276,15.3006617 L1.30953276,15.3006617 L1.66212873,13.1354019 L0.171609406,11.6072189 C-0.168966246,11.2586297 0.0249615366,10.6680315 0.510582349,10.5935055 L0.510582349,10.5935055 L2.54682407,10.2817786 Z M13.0798273,8.32967909 C13.2777618,7.90816664 13.9693308,7.90816664 14.1672653,8.32967909 L14.1672653,8.32967909 L15.0840148,10.2817786 L17.1202566,10.5935055 C17.605076,10.6680315 17.7998052,11.2586297 17.4600309,11.6072189 L17.4600309,11.6072189 L15.9695115,13.1354019 L16.3221075,15.3006617 C16.4038457,15.7999055 15.8709449,16.1637204 15.4382135,15.9233141 L15.4382135,15.9233141 L13.623947,14.9208197 L11.8096804,15.9233141 C11.3721409,16.1669259 10.8448497,15.7950974 10.9257865,15.3006617 L10.9257865,15.3006617 L11.2783824,13.1354019 L9.78786311,11.6072189 C9.44728746,11.2586297 9.64121524,10.6680315 10.1268361,10.5935055 L10.1268361,10.5935055 L12.1630778,10.2817786 Z M8.2725018,0.31613434 C8.47043635,-0.105378113 9.16200526,-0.105378113 9.35993982,0.31613434 L9.35993982,0.31613434 L10.2766893,2.26823384 L12.3129311,2.57996073 C12.7969492,2.65368534 12.9924797,3.24508495 12.651904,3.59367414 L12.651904,3.59367414 L11.1613847,5.12185713 L11.5139806,7.28711692 C11.5957188,7.78636076 11.0628181,8.15097705 10.6300867,7.90976935 L10.6300867,7.90976935 L8.81582013,6.9072749 L7.00235495,7.90976935 C6.56641812,8.1517784 6.03752416,7.78315534 6.11846097,7.28711692 L6.11846097,7.28711692 L6.47105694,5.12185713 L4.98053761,3.59367414 C4.63996196,3.24508495 4.83388974,2.6544867 5.31951055,2.57996073 L5.31951055,2.57996073 L7.35575228,2.26823384 Z" id="Combined-Shape"></path>
                    </g>
                </g>
            </g>
        </g>
    </g>
</svg>