<?xml version="1.0" encoding="UTF-8"?>
<svg width="13px" height="16px" viewBox="0 0 13 16" version="1.1" xmlns="http://www.w3.org/2000/svg" xmlns:xlink="http://www.w3.org/1999/xlink">
    <title>Shape</title>
    <g id="Page-1" stroke="none" stroke-width="1" fill="none" fill-rule="evenodd">
        <g id="Карта" transform="translate(-219.000000, -123.000000)" fill="#4D4D4D">
            <g id="sidebar" transform="translate(-2.000000, 0.000000)">
                <g id="мои-маршруты" transform="translate(2.000000, 0.000000)">
                    <g id="Group-6" transform="translate(17.000000, 76.000000)">
                        <g id="Group-8" transform="translate(0.000000, 39.000000)">
                            <path d="M213.0643,23.9998366 C212.760651,24.0023769 212.480716,23.8318576 212.3376,23.5571744 L211.75,21.999857 L205.25,21.999857 L204.6624,23.5571744 C204.519067,23.8322848 204.238515,24.0028752 203.9344,23.9998366 L202.8125,23.9998366 C202.372848,24.008765 202.009239,23.6507536 202,23.1998447 L202,9.93331359 C202,9.25865381 202.481,8.67732641 203.1531,8.5413278 C204.9354,8.18133148 206.719,8 208.5,8 C210.281,8 212.0646,8.17999816 213.8469,8.5413278 C214.5177,8.67732641 215,9.25865381 215,9.9346469 L215,23.1998447 C215,23.6411736 214.636,23.9998366 214.1875,23.9998366 L213.0643,23.9998366 Z M208.5,12.666619 C206.3602,12.666619 204.8535,12.7519515 203.9812,12.9226164 C203.5834,13.0012822 203.3,13.317279 203.3,13.6826086 L203.3,16.5559126 C203.3,16.9852416 203.6874,17.333238 204.1671,17.333238 L212.8329,17.333238 C213.3113,17.333238 213.7,16.9852416 213.7,16.5559126 L213.7,13.6826086 C213.7,13.317279 213.4166,13.0012822 213.0188,12.9226164 C212.1465,12.7519515 210.6398,12.666619 208.5,12.666619 Z M212.4,21.3331971 C213.11797,21.3331971 213.7,20.7362496 213.7,19.9998774 C213.7,19.2635053 213.11797,18.6665577 212.4,18.6665577 C211.68203,18.6665577 211.1,19.2635053 211.1,19.9998774 C211.1,20.7362496 211.68203,21.3331971 212.4,21.3331971 Z M204.6,21.3331971 C205.31797,21.3331971 205.9,20.7362496 205.9,19.9998774 C205.9,19.2635053 205.31797,18.6665577 204.6,18.6665577 C203.88203,18.6665577 203.3,19.2635053 203.3,19.9998774 C203.3,20.7362496 203.88203,21.3331971 204.6,21.3331971 Z M210.45,10.6666394 L210.45,11.9999591 L211.75,11.9999591 L211.75,10.6666394 L210.45,10.6666394 Z M209.15,9.33331971 L209.15,10.6666394 L210.45,10.6666394 L210.45,9.33331971 L209.15,9.33331971 Z M207.85,10.6666394 L207.85,11.9999591 L209.15,11.9999591 L209.15,10.6666394 L207.85,10.6666394 Z M206.55,9.33331971 L206.55,10.6666394 L207.85,10.6666394 L207.85,9.33331971 L206.55,9.33331971 Z M205.25,10.6666394 L205.25,11.9999591 L206.55,11.9999591 L206.55,10.6666394 L205.25,10.6666394 Z" id="Shape"></path>
                        </g>
                    </g>
                </g>
            </g>
        </g>
    </g>
</svg>