<svg width="15" height="15" viewBox="0 0 15 15" fill="none" xmlns="http://www.w3.org/2000/svg">
<path d="M7.5 15C11.6421 15 15 11.6421 15 7.5C15 3.35786 11.6421 0 7.5 0C3.35786 0 0 3.35786 0 7.5C0 11.6421 3.35786 15 7.5 15Z" fill="#F6F6F6"/>
<path d="M6.39258 10.0742C6.39258 9.4681 6.46777 8.98503 6.61816 8.625C6.76855 8.26497 7.06478 7.87077 7.50684 7.44238C7.95345 7.00944 8.236 6.70182 8.35449 6.51953C8.53678 6.24154 8.62793 5.94076 8.62793 5.61719C8.62793 5.1888 8.52083 4.86296 8.30664 4.63965C8.09701 4.41178 7.78711 4.29785 7.37695 4.29785C6.98503 4.29785 6.66829 4.40951 6.42676 4.63281C6.18978 4.85156 6.07129 5.15007 6.07129 5.52832H4.41016C4.41927 4.72168 4.69271 4.08366 5.23047 3.61426C5.77279 3.14486 6.48828 2.91016 7.37695 2.91016C8.29297 2.91016 9.00618 3.14258 9.5166 3.60742C10.0316 4.07227 10.2891 4.72168 10.2891 5.55566C10.2891 6.2985 9.94271 7.02995 9.25 7.75L8.40918 8.57715C8.1084 8.91895 7.95345 9.41797 7.94434 10.0742H6.39258ZM6.27637 12.2002C6.27637 11.9313 6.36068 11.7148 6.5293 11.5508C6.69792 11.3822 6.92578 11.2979 7.21289 11.2979C7.50456 11.2979 7.7347 11.3844 7.90332 11.5576C8.07194 11.7262 8.15625 11.9404 8.15625 12.2002C8.15625 12.4508 8.07422 12.6605 7.91016 12.8291C7.74609 12.9977 7.51367 13.082 7.21289 13.082C6.91211 13.082 6.67969 12.9977 6.51562 12.8291C6.35612 12.6605 6.27637 12.4508 6.27637 12.2002Z" fill="#999999"/>
</svg>
