<?xml version="1.0" encoding="UTF-8"?>
<svg width="9px" height="10px" viewBox="0 0 9 10" version="1.1" xmlns="http://www.w3.org/2000/svg" xmlns:xlink="http://www.w3.org/1999/xlink">
    <title>trash</title>
    <g id="Page-1" stroke="none" stroke-width="1" fill="none" fill-rule="evenodd">
        <g id="Справочник-2" transform="translate(-850.000000, -49.000000)" fill="#FFFFFF" fill-rule="nonzero">
            <g id="sidebar" transform="translate(99.000000, 30.000000)">
                <g id="right" transform="translate(401.000000, 13.000000)">
                    <g id="ТП" transform="translate(7.000000, 0.000000)">
                        <g id="тег-copy" transform="translate(324.000000, 0.000000)">
                            <g id="Group-20" transform="translate(11.000000, 0.000000)">
                                <g id="trash" transform="translate(8.000000, 6.000000)">
                                    <path d="M7.34375,1.25 L5.625,1.25 L5.625,0.9375 C5.625,0.419726562 5.20527344,0 4.6875,0 L3.4375,0 C2.91972656,0 2.5,0.419726562 2.5,0.9375 L2.5,1.25 L0.78125,1.25 C0.349785156,1.25 0,1.59978516 0,2.03125 L0,2.65625 C0,2.82884766 0.139902344,2.96875 0.3125,2.96875 L7.8125,2.96875 C7.98509766,2.96875 8.125,2.82884766 8.125,2.65625 L8.125,2.03125 C8.125,1.59978516 7.77521484,1.25 7.34375,1.25 Z M3.125,0.9375 C3.125,0.765234375 3.26523438,0.625 3.4375,0.625 L4.6875,0.625 C4.85976563,0.625 5,0.765234375 5,0.9375 L5,1.25 L3.125,1.25 L3.125,0.9375 Z" id="Shape"></path>
                                    <path d="M0.593046875,3.59375 C0.537285156,3.59375 0.492851563,3.64035156 0.495507813,3.69605469 L0.753320313,9.10703125 C0.777148438,9.6078125 1.18847656,10 1.68964844,10 L6.43535156,10 C6.93652344,10 7.34785156,9.6078125 7.37167969,9.10703125 L7.62949219,3.69605469 C7.63214844,3.64035156 7.58771484,3.59375 7.53195313,3.59375 L0.593046875,3.59375 Z M5.3125,4.375 C5.3125,4.20234375 5.45234375,4.0625 5.625,4.0625 C5.79765625,4.0625 5.9375,4.20234375 5.9375,4.375 L5.9375,8.4375 C5.9375,8.61015625 5.79765625,8.75 5.625,8.75 C5.45234375,8.75 5.3125,8.61015625 5.3125,8.4375 L5.3125,4.375 Z M3.75,4.375 C3.75,4.20234375 3.88984375,4.0625 4.0625,4.0625 C4.23515625,4.0625 4.375,4.20234375 4.375,4.375 L4.375,8.4375 C4.375,8.61015625 4.23515625,8.75 4.0625,8.75 C3.88984375,8.75 3.75,8.61015625 3.75,8.4375 L3.75,4.375 Z M2.1875,4.375 C2.1875,4.20234375 2.32734375,4.0625 2.5,4.0625 C2.67265625,4.0625 2.8125,4.20234375 2.8125,4.375 L2.8125,8.4375 C2.8125,8.61015625 2.67265625,8.75 2.5,8.75 C2.32734375,8.75 2.1875,8.61015625 2.1875,8.4375 L2.1875,4.375 Z" id="Shape"></path>
                                </g>
                            </g>
                        </g>
                    </g>
                </g>
            </g>
        </g>
    </g>
</svg>